<svg width="20" height="10" viewBox="0 0 20 10" fill="none" xmlns="http://www.w3.org/2000/svg">
<path d="M5.62245 -0.00646973C5.74683 -0.0064394 5.86838 0.0307001 5.97154 0.100197C6.07469 0.169694 6.15477 0.268388 6.20152 0.383652C6.24827 0.498915 6.25957 0.625506 6.23398 0.747227C6.20838 0.868949 6.14705 0.980266 6.05783 1.06694L2.95806 4.16671H18.5326C18.6154 4.16554 18.6976 4.18084 18.7745 4.21172C18.8514 4.2426 18.9213 4.28845 18.9803 4.34661C19.0393 4.40476 19.0861 4.47406 19.1181 4.55047C19.15 4.62688 19.1665 4.70888 19.1665 4.79171C19.1665 4.87454 19.15 4.95654 19.1181 5.03295C19.0861 5.10936 19.0393 5.17865 18.9803 5.23681C18.9213 5.29496 18.8514 5.34081 18.7745 5.37169C18.6976 5.40258 18.6154 5.41788 18.5326 5.41671H2.95806L6.05783 8.51648C6.11781 8.57407 6.1657 8.64305 6.19869 8.71938C6.23168 8.79571 6.24911 8.87786 6.24995 8.96101C6.2508 9.04416 6.23504 9.12664 6.20361 9.20362C6.17218 9.28061 6.12571 9.35055 6.06691 9.40935C6.00811 9.46814 5.93817 9.51462 5.86118 9.54605C5.7842 9.57748 5.70172 9.59323 5.61857 9.59239C5.53542 9.59154 5.45327 9.57412 5.37694 9.54113C5.30061 9.50814 5.23163 9.46025 5.17404 9.40027L1.00738 5.2336C0.890209 5.11639 0.824391 4.95744 0.824391 4.79171C0.824391 4.62598 0.890209 4.46703 1.00738 4.34981L5.17404 0.183146C5.2323 0.123152 5.302 0.0754574 5.37902 0.0428873C5.45605 0.0103172 5.53882 -0.0064664 5.62245 -0.00646973Z" fill="white"/>
</svg>
