<svg width="8" height="15" viewBox="0 0 8 15" fill="none" xmlns="http://www.w3.org/2000/svg">
<path d="M7.75367 7.57979C7.75177 7.44968 7.69922 7.32543 7.60719 7.23344L1.10719 0.733435C1.06112 0.68545 1.00593 0.647139 0.944869 0.620748C0.883805 0.594356 0.818089 0.580414 0.751569 0.579737C0.685049 0.579061 0.619064 0.591664 0.557476 0.616809C0.495888 0.641953 0.439936 0.679134 0.392897 0.726173C0.345858 0.773212 0.308677 0.829164 0.283532 0.890752C0.258388 0.95234 0.245785 1.01833 0.246461 1.08485C0.247137 1.15137 0.26108 1.21708 0.287472 1.27815C0.313863 1.33921 0.352173 1.39439 0.400159 1.44047L6.54664 7.58695L0.400158 13.7334C0.352173 13.7795 0.313862 13.8347 0.287471 13.8958C0.26108 13.9568 0.247138 14.0225 0.246462 14.0891C0.245785 14.1556 0.258388 14.2216 0.283533 14.2831C0.308677 14.3447 0.345858 14.4007 0.392896 14.4477C0.439935 14.4948 0.495887 14.5319 0.557475 14.5571C0.619063 14.5822 0.685049 14.5948 0.751568 14.5942C0.818088 14.5935 0.883805 14.5795 0.944869 14.5532C1.00593 14.5268 1.06112 14.4885 1.10719 14.4405L7.60719 7.94047C7.65448 7.8932 7.69181 7.83692 7.71697 7.77497C7.74213 7.71302 7.75461 7.64665 7.75367 7.57979Z" fill="#767382"/>
</svg>
