<svg width="20" height="20" viewBox="0 0 20 20" fill="none" xmlns="http://www.w3.org/2000/svg">
<path d="M9.99994 0C8.24578 0 6.78514 1.31072 6.53998 3H3.11908C3.0765 2.99271 3.03337 2.98912 2.99017 2.98926C2.95285 2.99006 2.91564 2.99365 2.87885 3H1.24994C1.15056 2.99859 1.05188 3.01695 0.959657 3.05402C0.867431 3.09108 0.78349 3.1461 0.712713 3.21588C0.641936 3.28566 0.585734 3.36882 0.547373 3.46051C0.509012 3.5522 0.489258 3.65061 0.489258 3.75C0.489258 3.84939 0.509012 3.9478 0.547373 4.03949C0.585734 4.13118 0.641936 4.21434 0.712713 4.28412C0.78349 4.3539 0.867431 4.40892 0.959657 4.44598C1.05188 4.48304 1.15056 4.5014 1.24994 4.5H2.31928L3.57806 17.5146C3.7136 18.918 4.90583 20 6.31537 20H13.6835C15.0931 20 16.2854 18.9181 16.4208 17.5146L17.6806 4.5H18.7499C18.8493 4.5014 18.948 4.48304 19.0402 4.44598C19.1324 4.40892 19.2164 4.3539 19.2872 4.28412C19.3579 4.21434 19.4141 4.13118 19.4525 4.03949C19.4909 3.9478 19.5106 3.84939 19.5106 3.75C19.5106 3.65061 19.4909 3.5522 19.4525 3.46051C19.4141 3.36882 19.3579 3.28566 19.2872 3.21588C19.2164 3.1461 19.1324 3.09108 19.0402 3.05402C18.948 3.01695 18.8493 2.99859 18.7499 3H17.122C17.0425 2.98709 16.9613 2.98709 16.8818 3H13.4599C13.2147 1.31072 11.7541 0 9.99994 0ZM9.99994 1.5C10.9395 1.5 11.7103 2.13408 11.9306 3H8.06928C8.28956 2.13408 9.06036 1.5 9.99994 1.5ZM3.82513 4.5H16.1738L14.9277 17.3701C14.8652 18.0177 14.3339 18.5 13.6835 18.5H6.31537C5.66591 18.5 5.13369 18.0168 5.07123 17.3701L3.82513 4.5ZM8.23822 6.98926C8.03948 6.99236 7.8501 7.07422 7.71167 7.21686C7.57324 7.3595 7.49709 7.55125 7.49994 7.75V15.25C7.49853 15.3494 7.5169 15.4481 7.55396 15.5403C7.59102 15.6325 7.64604 15.7164 7.71582 15.7872C7.7856 15.858 7.86876 15.9142 7.96045 15.9526C8.05214 15.9909 8.15055 16.0107 8.24994 16.0107C8.34933 16.0107 8.44774 15.9909 8.53943 15.9526C8.63112 15.9142 8.71428 15.858 8.78406 15.7872C8.85384 15.7164 8.90886 15.6325 8.94592 15.5403C8.98298 15.4481 9.00135 15.3494 8.99994 15.25V7.75C9.00138 7.64962 8.98265 7.54997 8.94487 7.45695C8.90709 7.36394 8.85102 7.27946 8.77998 7.20852C8.70895 7.13757 8.6244 7.08161 8.53134 7.04395C8.43828 7.00629 8.3386 6.98769 8.23822 6.98926ZM11.7382 6.98926C11.5395 6.99236 11.3501 7.07422 11.2117 7.21686C11.0732 7.3595 10.9971 7.55125 10.9999 7.75V15.25C10.9985 15.3494 11.0169 15.4481 11.054 15.5403C11.091 15.6325 11.146 15.7164 11.2158 15.7872C11.2856 15.858 11.3688 15.9142 11.4605 15.9526C11.5521 15.9909 11.6505 16.0107 11.7499 16.0107C11.8493 16.0107 11.9477 15.9909 12.0394 15.9526C12.1311 15.9142 12.2143 15.858 12.2841 15.7872C12.3538 15.7164 12.4089 15.6325 12.4459 15.5403C12.483 15.4481 12.5013 15.3494 12.4999 15.25V7.75C12.5014 7.64962 12.4827 7.54997 12.4449 7.45695C12.4071 7.36394 12.351 7.27946 12.28 7.20852C12.209 7.13757 12.1244 7.08161 12.0313 7.04395C11.9383 7.00629 11.8386 6.98769 11.7382 6.98926Z" fill="#FF4D3F"/>
</svg>
