<svg width="14" height="12" viewBox="0 0 14 12" fill="none" xmlns="http://www.w3.org/2000/svg">
<path d="M1 2.66671C1 2.31309 1.14048 1.97395 1.39052 1.7239C1.64057 1.47385 1.97971 1.33337 2.33333 1.33337H11.6667C12.0203 1.33337 12.3594 1.47385 12.6095 1.7239C12.8595 1.97395 13 2.31309 13 2.66671V9.33337C13 9.687 12.8595 10.0261 12.6095 10.2762C12.3594 10.5262 12.0203 10.6667 11.6667 10.6667H2.33333C1.97971 10.6667 1.64057 10.5262 1.39052 10.2762C1.14048 10.0261 1 9.687 1 9.33337V2.66671Z" stroke="#8A8793" stroke-linecap="round" stroke-linejoin="round"/>
<path d="M1 2.66675L7 6.66675L13 2.66675" stroke="#8A8793" stroke-linecap="round" stroke-linejoin="round"/>
</svg>
