<svg width="20" height="20" viewBox="0 0 20 20" fill="none" xmlns="http://www.w3.org/2000/svg">
<path d="M10 0C4.48615 0 0 4.48615 0 10C0 15.5139 4.48615 20 10 20C11.2342 20 12.42 19.7758 13.5137 19.3652C13.607 19.3314 13.6927 19.2795 13.7657 19.2123C13.8388 19.1452 13.8978 19.0642 13.9394 18.9741C13.9809 18.8839 14.0042 18.7865 14.0078 18.6873C14.0114 18.5881 13.9953 18.4892 13.9604 18.3963C13.9255 18.3034 13.8725 18.2183 13.8046 18.1461C13.7366 18.0738 13.6549 18.0157 13.5643 17.9752C13.4737 17.9347 13.3759 17.9126 13.2767 17.9102C13.1775 17.9077 13.0788 17.925 12.9863 17.9609C12.058 18.3094 11.0528 18.5 10 18.5C5.29685 18.5 1.5 14.7031 1.5 10C1.5 5.29685 5.29685 1.5 10 1.5C14.7031 1.5 18.5 5.29685 18.5 10V11.25C18.5 12.5017 17.5017 13.5 16.25 13.5C14.9982 13.5 14 12.5017 14 11.25V10V5.75C14.0014 5.65062 13.983 5.55194 13.946 5.45972C13.9089 5.36749 13.8539 5.28355 13.7841 5.21277C13.7143 5.142 13.6312 5.08579 13.5395 5.04743C13.4478 5.00907 13.3494 4.98932 13.25 4.98932C13.1506 4.98932 13.0522 5.00907 12.9605 5.04743C12.8688 5.08579 12.7857 5.142 12.7159 5.21277C12.6461 5.28355 12.5911 5.36749 12.554 5.45972C12.517 5.55194 12.4986 5.65062 12.5 5.75V6.2832C11.7098 5.49218 10.6657 5 9.5 5C6.97105 5 5 7.29763 5 10C5 12.7024 6.97105 15 9.5 15C10.9362 15 12.1913 14.2584 13.0088 13.123C13.6597 14.2416 14.8696 15 16.25 15C18.3122 15 20 13.3122 20 11.25V10C20 4.48615 15.5139 0 10 0ZM9.5 6.5C11.107 6.5 12.5 8.01536 12.5 10C12.5 11.9846 11.107 13.5 9.5 13.5C7.89295 13.5 6.5 11.9846 6.5 10C6.5 8.01536 7.89295 6.5 9.5 6.5Z" fill="#6444D3"/>
</svg>
