<svg width="18" height="16" viewBox="0 0 18 16" fill="none" xmlns="http://www.w3.org/2000/svg">
<path d="M12.5416 0.083374C11.5135 0.083374 10.6666 0.930249 10.6666 1.95837V2.16671H1.29162C1.2088 2.16554 1.12657 2.18084 1.04971 2.21172C0.972859 2.2426 0.902909 2.28845 0.843928 2.34661C0.784947 2.40476 0.738112 2.47406 0.706144 2.55047C0.674177 2.62688 0.657715 2.70888 0.657715 2.79171C0.657715 2.87454 0.674177 2.95654 0.706144 3.03295C0.738112 3.10936 0.784947 3.17865 0.843928 3.23681C0.902909 3.29496 0.972859 3.34081 1.04971 3.37169C1.12657 3.40258 1.2088 3.41788 1.29162 3.41671H10.6666V3.62504C10.6666 4.65317 11.5135 5.50004 12.5416 5.50004C13.5697 5.50004 14.4166 4.65317 14.4166 3.62504V3.41671H16.7083C16.7911 3.41788 16.8733 3.40258 16.9502 3.37169C17.027 3.34081 17.097 3.29496 17.156 3.23681C17.215 3.17865 17.2618 3.10936 17.2938 3.03295C17.3257 2.95654 17.3422 2.87454 17.3422 2.79171C17.3422 2.70888 17.3257 2.62688 17.2938 2.55047C17.2618 2.47406 17.215 2.40476 17.156 2.34661C17.097 2.28845 17.027 2.2426 16.9502 2.21172C16.8733 2.18084 16.7911 2.16554 16.7083 2.16671H14.4166V1.95837C14.4166 0.930249 13.5697 0.083374 12.5416 0.083374ZM12.5416 1.33337C12.8943 1.33337 13.1666 1.60567 13.1666 1.95837V2.68917C13.1556 2.75626 13.1556 2.82471 13.1666 2.8918V3.62504C13.1666 3.97775 12.8943 4.25004 12.5416 4.25004C12.1889 4.25004 11.9166 3.97775 11.9166 3.62504V2.89425C11.9276 2.82715 11.9276 2.75871 11.9166 2.69161V1.95837C11.9166 1.60567 12.1889 1.33337 12.5416 1.33337ZM5.45828 5.29171C4.43016 5.29171 3.58328 6.13858 3.58328 7.16671V7.37504H1.29162C1.2088 7.37387 1.12657 7.38917 1.04971 7.42005C0.972859 7.45094 0.902909 7.49679 0.843928 7.55494C0.784947 7.61309 0.738112 7.68239 0.706144 7.7588C0.674177 7.83521 0.657715 7.91721 0.657715 8.00004C0.657715 8.08287 0.674177 8.16487 0.706144 8.24128C0.738112 8.31769 0.784947 8.38699 0.843928 8.44514C0.902909 8.50329 0.972859 8.54914 1.04971 8.58003C1.12657 8.61091 1.2088 8.62621 1.29162 8.62504H3.58328V8.83337C3.58328 9.8615 4.43016 10.7084 5.45828 10.7084C6.48641 10.7084 7.33328 9.8615 7.33328 8.83337V8.62504H16.7083C16.7911 8.62621 16.8733 8.61091 16.9502 8.58003C17.027 8.54914 17.097 8.50329 17.156 8.44514C17.215 8.38699 17.2618 8.31769 17.2938 8.24128C17.3257 8.16487 17.3422 8.08287 17.3422 8.00004C17.3422 7.91721 17.3257 7.83521 17.2938 7.7588C17.2618 7.68239 17.215 7.61309 17.156 7.55494C17.097 7.49679 17.027 7.45094 16.9502 7.42005C16.8733 7.38917 16.7911 7.37387 16.7083 7.37504H7.33328V7.16671C7.33328 6.13858 6.48641 5.29171 5.45828 5.29171ZM5.45828 6.54171C5.81099 6.54171 6.08328 6.814 6.08328 7.16671V7.8975C6.07226 7.9646 6.07226 8.03304 6.08328 8.10014V8.83337C6.08328 9.18608 5.81099 9.45837 5.45828 9.45837C5.10557 9.45837 4.83328 9.18608 4.83328 8.83337V8.10258C4.8443 8.03548 4.8443 7.96704 4.83328 7.89994V7.16671C4.83328 6.814 5.10557 6.54171 5.45828 6.54171ZM11.7083 10.5C10.6802 10.5 9.83328 11.3469 9.83328 12.375V12.5834H1.29162C1.2088 12.5822 1.12657 12.5975 1.04971 12.6284C0.972859 12.6593 0.902909 12.7051 0.843928 12.7633C0.784947 12.8214 0.738112 12.8907 0.706144 12.9671C0.674177 13.0435 0.657715 13.1255 0.657715 13.2084C0.657715 13.2912 0.674177 13.3732 0.706144 13.4496C0.738112 13.526 0.784947 13.5953 0.843928 13.6535C0.902909 13.7116 0.972859 13.7575 1.04971 13.7884C1.12657 13.8192 1.2088 13.8345 1.29162 13.8334H9.83328V14.0417C9.83328 15.0698 10.6802 15.9167 11.7083 15.9167C12.7364 15.9167 13.5833 15.0698 13.5833 14.0417V13.8334H16.7083C16.7911 13.8345 16.8733 13.8192 16.9502 13.7884C17.027 13.7575 17.097 13.7116 17.156 13.6535C17.215 13.5953 17.2618 13.526 17.2938 13.4496C17.3257 13.3732 17.3422 13.2912 17.3422 13.2084C17.3422 13.1255 17.3257 13.0435 17.2938 12.9671C17.2618 12.8907 17.215 12.8214 17.156 12.7633C17.097 12.7051 17.027 12.6593 16.9502 12.6284C16.8733 12.5975 16.7911 12.5822 16.7083 12.5834H13.5833V12.375C13.5833 11.3469 12.7364 10.5 11.7083 10.5ZM11.7083 11.75C12.061 11.75 12.3333 12.0223 12.3333 12.375V13.1058C12.3223 13.1729 12.3223 13.2414 12.3333 13.3085V14.0417C12.3333 14.3944 12.061 14.6667 11.7083 14.6667C11.3556 14.6667 11.0833 14.3944 11.0833 14.0417V13.3109C11.0943 13.2438 11.0943 13.1754 11.0833 13.1083V12.375C11.0833 12.0223 11.3556 11.75 11.7083 11.75Z" fill="white"/>
</svg>
