<svg width="20" height="18" viewBox="0 0 20 18" fill="none" xmlns="http://www.w3.org/2000/svg">
<path d="M5.5 0.5C2.47122 0.5 0 2.97122 0 6C0 8.04808 1.54382 9.97645 3.42578 11.9541C5.30774 13.9318 7.62419 15.9347 9.46973 17.7803C9.61038 17.9209 9.80112 17.9999 10 17.9999C10.1989 17.9999 10.3896 17.9209 10.5303 17.7803C12.3758 15.9347 14.6923 13.9318 16.5742 11.9541C18.4562 9.97645 20 8.04808 20 6C20 2.97122 17.5288 0.5 14.5 0.5C12.7618 0.5 11.2484 1.43324 10 3.01855C8.75159 1.43324 7.23822 0.5 5.5 0.5ZM5.5 2C6.96428 2 8.18315 2.7792 9.36621 4.65039C9.43386 4.75727 9.52744 4.84531 9.63825 4.90632C9.74907 4.96732 9.87351 4.99931 10 4.99931C10.1265 4.99931 10.2509 4.96732 10.3617 4.90632C10.4726 4.84531 10.5661 4.75727 10.6338 4.65039C11.8168 2.7792 13.0357 2 14.5 2C16.7182 2 18.5 3.78178 18.5 6C18.5 7.20192 17.2938 9.02355 15.4883 10.9209C13.8418 12.6511 11.7952 14.4587 10 16.209C8.20484 14.4587 6.1582 12.6511 4.51172 10.9209C2.70618 9.02355 1.5 7.20192 1.5 6C1.5 3.78178 3.28178 2 5.5 2Z" fill="#8A8793"/>
</svg>
