<svg width="20" height="18" viewBox="0 0 20 18" fill="none" xmlns="http://www.w3.org/2000/svg">
<path d="M5.63596 0.199951C2.74396 0.199951 0.400024 2.54389 0.400024 5.43589C0.400024 10.4698 6.2392 15.2798 8.96721 17.4218C8.96981 17.4239 8.97241 17.426 8.97502 17.4281C8.99372 17.4428 9.01913 17.4637 9.03752 17.4781L9.03909 17.4765C9.31587 17.6856 9.65312 17.7992 10 17.8C10.3475 17.7995 10.6853 17.686 10.9625 17.4765V17.4781C10.9679 17.4739 10.9759 17.4683 10.9813 17.464C10.9854 17.4608 10.9912 17.4563 10.9953 17.4531C11.0006 17.4484 11.0058 17.4437 11.011 17.439C13.7305 15.3047 19.6 10.4818 19.6 5.43589C19.6 2.54389 17.2561 0.199951 14.3641 0.199951C11.6001 0.199951 10 2.59995 10 2.59995C10 2.59995 8.39996 0.199951 5.63596 0.199951Z" fill="#FF4D3F"/>
</svg>
