<svg width="25" height="27" viewBox="0 0 25 27" fill="none" xmlns="http://www.w3.org/2000/svg">
<path d="M22.8333 26.6667H16.8333C15.9127 26.6667 15.1667 25.9207 15.1667 25.0001V19.0001C15.1667 18.2634 14.57 17.6667 13.8333 17.6667H11.1667C10.43 17.6667 9.83333 18.2634 9.83333 19.0001V25.0001C9.83333 25.9207 9.08733 26.6667 8.16667 26.6667H2.16667C1.246 26.6667 0.5 25.9207 0.5 25.0001V12.2754C0.5 10.7427 1.20267 9.29475 2.406 8.34675L11.8807 0.880748C12.244 0.595415 12.756 0.595415 13.1187 0.880748L22.5947 8.34675C23.798 9.29475 24.5 10.7421 24.5 12.2741V25.0001C24.5 25.9207 23.754 26.6667 22.8333 26.6667Z" fill="#6444D3"/>
</svg>
