<svg width="25" height="27" viewBox="0 0 25 27" fill="none" xmlns="http://www.w3.org/2000/svg">
<path d="M12.4674 0.666622C12.2542 0.673903 12.0489 0.749184 11.8815 0.881465L2.40625 8.34631C1.20365 9.29406 0.5 10.7423 0.5 12.2734V25C0.5 25.909 1.2576 26.6666 2.16667 26.6666H8.83333C9.7424 26.6666 10.5 25.909 10.5 25V18.3333C10.5 18.1366 10.6366 18 10.8333 18H14.1667C14.3634 18 14.5 18.1366 14.5 18.3333V25C14.5 25.909 15.2576 26.6666 16.1667 26.6666H22.8333C23.7424 26.6666 24.5 25.909 24.5 25V12.2734C24.5 10.7423 23.7963 9.29406 22.5938 8.34631L13.1185 0.881465C12.9336 0.735382 12.703 0.659294 12.4674 0.666622ZM12.5 2.94006L21.3568 9.91792C22.0795 10.4875 22.5 11.3538 22.5 12.2734V24.6666H16.5V18.3333C16.5 17.0567 15.4433 16 14.1667 16H10.8333C9.5567 16 8.5 17.0567 8.5 18.3333V24.6666H2.5V12.2734C2.5 11.3538 2.92049 10.4875 3.64323 9.91792L12.5 2.94006Z" fill="#6444D3"/>
</svg>
