<svg width="16" height="16" viewBox="0 0 16 16" fill="none" xmlns="http://www.w3.org/2000/svg">
<path d="M5.99984 10.6667C5.99984 10.8435 5.9296 11.013 5.80457 11.1381C5.67955 11.2631 5.50998 11.3333 5.33317 11.3333C5.15636 11.3333 4.98679 11.2631 4.86177 11.1381C4.73674 11.013 4.6665 10.8435 4.6665 10.6667C4.6665 10.4899 4.73674 10.3203 4.86177 10.1953C4.98679 10.0702 5.15636 10 5.33317 10C5.50998 10 5.67955 10.0702 5.80457 10.1953C5.9296 10.3203 5.99984 10.4899 5.99984 10.6667ZM8.6665 10.6667C8.6665 10.8435 8.59627 11.013 8.47124 11.1381C8.34622 11.2631 8.17665 11.3333 7.99984 11.3333C7.82303 11.3333 7.65346 11.2631 7.52843 11.1381C7.40341 11.013 7.33317 10.8435 7.33317 10.6667C7.33317 10.4899 7.40341 10.3203 7.52843 10.1953C7.65346 10.0702 7.82303 10 7.99984 10C8.17665 10 8.34622 10.0702 8.47124 10.1953C8.59627 10.3203 8.6665 10.4899 8.6665 10.6667ZM11.3332 10.6667C11.3332 10.8435 11.2629 11.013 11.1379 11.1381C11.0129 11.2631 10.8433 11.3333 10.6665 11.3333C10.4897 11.3333 10.3201 11.2631 10.1951 11.1381C10.0701 11.013 9.99984 10.8435 9.99984 10.6667C9.99984 10.4899 10.0701 10.3203 10.1951 10.1953C10.3201 10.0702 10.4897 10 10.6665 10C10.8433 10 11.0129 10.0702 11.1379 10.1953C11.2629 10.3203 11.3332 10.4899 11.3332 10.6667Z" fill="#8A8793"/>
<path d="M3.99992 6.66671V5.33338C3.99992 5.10671 4.01859 4.88338 4.05525 4.66671M11.9999 6.66671V5.33338C12 4.52087 11.7526 3.72762 11.2907 3.05917C10.8288 2.39073 10.1743 1.87881 9.41425 1.59152C8.65423 1.30423 7.82474 1.2552 7.03617 1.45097C6.2476 1.64673 5.53734 2.078 4.99992 2.68738M7.33325 14.6667H5.33325C3.44792 14.6667 2.50459 14.6667 1.91925 14.0807C1.33325 13.4954 1.33325 12.552 1.33325 10.6667C1.33325 8.78138 1.33325 7.83805 1.91925 7.25271C2.50459 6.66671 3.44792 6.66671 5.33325 6.66671H10.6666C12.5519 6.66671 13.4953 6.66671 14.0806 7.25271C14.6666 7.83805 14.6666 8.78138 14.6666 10.6667C14.6666 12.552 14.6666 13.4954 14.0806 14.0807C13.4953 14.6667 12.5519 14.6667 10.6666 14.6667H9.99992" stroke="#8A8793" stroke-linecap="round"/>
</svg>
