<svg width="15" height="16" viewBox="0 0 15 16" fill="none" xmlns="http://www.w3.org/2000/svg">
<path d="M2.29167 0.5C1.03343 0.5 0 1.53343 0 2.79167V13.2083C0 14.4666 1.03343 15.5 2.29167 15.5H9.79167C11.0499 15.5 12.0833 14.4666 12.0833 13.2083C12.0845 13.1255 12.0692 13.0433 12.0383 12.9664C12.0074 12.8896 11.9616 12.8196 11.9034 12.7606C11.8453 12.7017 11.776 12.6548 11.6996 12.6229C11.6232 12.5909 11.5412 12.5744 11.4583 12.5744C11.3755 12.5744 11.2935 12.5909 11.2171 12.6229C11.1407 12.6548 11.0714 12.7017 11.0132 12.7606C10.9551 12.8196 10.9092 12.8896 10.8783 12.9664C10.8475 13.0433 10.8322 13.1255 10.8333 13.2083C10.8333 13.7909 10.3743 14.25 9.79167 14.25H2.29167C1.70907 14.25 1.25 13.7909 1.25 13.2083V2.79167C1.25 2.20907 1.70907 1.75 2.29167 1.75H9.79167C10.3743 1.75 10.8333 2.20907 10.8333 2.79167C10.8322 2.87449 10.8475 2.95671 10.8783 3.03357C10.9092 3.11042 10.9551 3.18037 11.0132 3.23936C11.0714 3.29834 11.1407 3.34517 11.2171 3.37714C11.2935 3.40911 11.3755 3.42557 11.4583 3.42557C11.5412 3.42557 11.6232 3.40911 11.6996 3.37714C11.776 3.34517 11.8453 3.29834 11.9034 3.23936C11.9616 3.18037 12.0074 3.11042 12.0383 3.03357C12.0692 2.95671 12.0845 2.87449 12.0833 2.79167C12.0833 1.53343 11.0499 0.5 9.79167 0.5H2.29167ZM11.4518 4.45182C11.3274 4.45185 11.2059 4.48899 11.1027 4.55849C10.9996 4.62799 10.9195 4.72668 10.8727 4.84194C10.826 4.95721 10.8147 5.0838 10.8403 5.20552C10.8659 5.32724 10.9272 5.43856 11.0164 5.52523L12.8662 7.375H3.95833C3.87551 7.37383 3.79329 7.38913 3.71643 7.42001C3.63958 7.4509 3.56963 7.49675 3.51064 7.5549C3.45166 7.61305 3.40483 7.68235 3.37286 7.75876C3.34089 7.83517 3.32443 7.91717 3.32443 8C3.32443 8.08283 3.34089 8.16483 3.37286 8.24124C3.40483 8.31765 3.45166 8.38695 3.51064 8.4451C3.56963 8.50325 3.63958 8.5491 3.71643 8.57999C3.79329 8.61087 3.87551 8.62617 3.95833 8.625H12.8662L11.0164 10.4748C10.9565 10.5324 10.9086 10.6013 10.8756 10.6777C10.8426 10.754 10.8252 10.8361 10.8243 10.9193C10.8235 11.0024 10.8392 11.0849 10.8707 11.1619C10.9021 11.2389 10.9486 11.3088 11.0074 11.3676C11.0662 11.4264 11.1361 11.4729 11.2131 11.5043C11.2901 11.5358 11.3726 11.5515 11.4557 11.5507C11.5388 11.5498 11.621 11.5324 11.6973 11.4994C11.7737 11.4664 11.8426 11.4185 11.9002 11.3586L14.8169 8.44189C14.9341 8.32468 14.9999 8.16573 14.9999 8C14.9999 7.83427 14.9341 7.67532 14.8169 7.55811L11.9002 4.64144C11.842 4.58144 11.7723 4.53375 11.6952 4.50118C11.6182 4.46861 11.5354 4.45183 11.4518 4.45182Z" fill="#09080B"/>
</svg>
