<svg width="27" height="26" viewBox="0 0 27 26" fill="none" xmlns="http://www.w3.org/2000/svg">
<path d="M10.8333 0.333374C4.95428 0.333374 0.166656 5.11961 0.166656 10.9987C0.166656 12.7111 0.617897 14.3101 1.33723 15.7448L0.223948 19.7344C-0.081003 20.8278 1.00538 21.9152 2.09895 21.6107L6.09114 20.4974C6.5072 20.7059 6.93904 20.8881 7.3815 21.0469C9.30474 23.8363 12.5287 25.6654 16.1667 25.6654C17.8776 25.6654 19.4752 25.2156 20.9088 24.4974L24.901 25.6107C25.9946 25.9152 27.081 24.8278 26.776 23.7344L25.6627 19.7448C26.3821 18.3101 26.8333 16.7111 26.8333 14.9987C26.8333 10.3072 23.7913 6.31557 19.5651 4.89457C17.6337 2.14193 14.4418 0.333374 10.8333 0.333374ZM10.8333 2.33337C15.6316 2.33337 19.5 6.2011 19.5 11C19.5 15.7982 15.6316 19.6654 10.8333 19.6654C9.30208 19.6654 7.87167 19.2674 6.62369 18.5717C6.39361 18.4434 6.12222 18.4111 5.86848 18.4818L2.37759 19.4558L3.35285 15.9675C3.42389 15.7133 3.39159 15.4414 3.26301 15.211C2.56591 13.9616 2.16666 12.5312 2.16666 10.9987C2.16666 6.20053 6.03503 2.33337 10.8333 2.33337ZM21.0156 7.82166C23.3162 9.37703 24.8333 12.0036 24.8333 14.9987C24.8333 16.5312 24.4341 17.9616 23.737 19.211C23.6084 19.4414 23.5761 19.7133 23.6471 19.9675L24.6224 23.4558L21.1315 22.4818C20.8778 22.4111 20.6064 22.4434 20.3763 22.5717C19.1283 23.2674 17.6979 23.6654 16.1667 23.6654C14.0582 23.6654 12.1412 22.9049 10.6419 21.6589C10.7059 21.6602 10.769 21.6654 10.8333 21.6654C16.7124 21.6654 21.5 16.8792 21.5 11C21.5 9.89367 21.33 8.82603 21.0156 7.82166Z" fill="#6444D3"/>
</svg>
