<svg width="52" height="50" viewBox="0 0 52 50" fill="none" xmlns="http://www.w3.org/2000/svg">
<path d="M51.2928 43.2282L41.1663 33.4928C40.7092 33.0534 40.0896 32.8093 39.4396 32.8093H37.784C40.5873 29.3624 42.2531 25.0269 42.2531 20.3105C42.2531 9.09091 32.7969 0 21.1265 0C9.45616 0 0 9.09091 0 20.3105C0 31.5301 9.45616 40.621 21.1265 40.621C26.0324 40.621 30.5421 39.0196 34.1275 36.3246V37.9162C34.1275 38.5412 34.3814 39.1368 34.8385 39.5762L44.965 49.3116C45.9198 50.2295 47.4636 50.2295 48.4082 49.3116L51.2827 46.5482C52.2374 45.6303 52.2374 44.1461 51.2928 43.2282ZM21.1265 32.8093C13.9456 32.8093 8.12559 27.2239 8.12559 20.3105C8.12559 13.4069 13.9354 7.81174 21.1265 7.81174C28.3075 7.81174 34.1275 13.3971 34.1275 20.3105C34.1275 27.2141 28.3177 32.8093 21.1265 32.8093Z" fill="#DADADA"/>
</svg>
