<svg width="14" height="16" viewBox="0 0 14 16" fill="none" xmlns="http://www.w3.org/2000/svg">
<path d="M7.01627 0.666625C6.88734 0.662602 6.76185 0.708554 6.66601 0.794881C6.66601 0.794881 4.16338 2.99996 1.16666 2.99996C1.03405 2.99997 0.906883 3.05265 0.813118 3.14642C0.719353 3.24019 0.66667 3.36735 0.666656 3.49996V7.58655C0.666656 9.81256 1.69646 13.4754 6.80598 15.6276C6.86739 15.6534 6.93336 15.6667 6.99999 15.6667C7.06662 15.6667 7.13259 15.6534 7.194 15.6276C12.3035 13.4754 13.3333 9.81256 13.3333 7.58655V3.49996C13.3333 3.36735 13.2806 3.24019 13.1869 3.14642C13.0931 3.05265 12.9659 2.99997 12.8333 2.99996C9.8366 2.99996 7.33397 0.794881 7.33397 0.794881C7.24648 0.71605 7.13397 0.670631 7.01627 0.666625ZM6.99999 1.8092C7.68765 2.36208 9.70374 3.77902 12.3333 3.95829V7.58655C12.3333 9.50063 11.5978 12.5885 6.99999 14.6087C2.40218 12.5885 1.66666 9.50063 1.66666 7.58655V3.95829C4.29624 3.77902 6.31233 2.36208 6.99999 1.8092ZM6.99999 5.33329C6.65019 5.33329 6.30925 5.44335 6.02547 5.64789C5.7417 5.85242 5.52947 6.14106 5.41885 6.47291C5.30823 6.80477 5.30483 7.16301 5.40913 7.4969C5.51343 7.8308 5.72015 8.12341 5.99999 8.33329V9.99996C5.99999 10.5523 6.44766 11 6.99999 11C7.55232 11 7.99999 10.5523 7.99999 9.99996V8.33069C8.27876 8.12048 8.48447 7.82803 8.5881 7.49463C8.69172 7.16122 8.68803 6.80369 8.57753 6.4725C8.46704 6.1413 8.25533 5.85317 7.97228 5.64877C7.68922 5.44437 7.34913 5.33402 6.99999 5.33329Z" fill="#6444D3"/>
</svg>
