<svg width="14" height="15" viewBox="0 0 14 15" fill="none" xmlns="http://www.w3.org/2000/svg">
<path d="M7.00001 0.832642C3.32411 0.832642 0.333344 3.82341 0.333344 7.49931C0.333344 8.59108 0.620913 9.61158 1.08725 10.5214L0.364594 13.1087C0.196276 13.7098 0.790652 14.3042 1.39194 14.136L3.98113 13.4134C4.89026 13.8787 5.90926 14.166 7.00001 14.166C10.6759 14.166 13.6667 11.1752 13.6667 7.49931C13.6667 3.82341 10.6759 0.832642 7.00001 0.832642ZM7.00001 1.83264C10.1354 1.83264 12.6667 4.36388 12.6667 7.49931C12.6667 10.6347 10.1354 13.166 7.00001 13.166C5.99948 13.166 5.06354 12.9058 4.24741 12.4511C4.13236 12.387 3.99667 12.3709 3.8698 12.4062L1.40756 13.0931L2.09506 10.6321C2.13058 10.505 2.11443 10.3691 2.05014 10.2539C1.59456 9.43713 1.33334 8.50081 1.33334 7.49931C1.33334 4.36388 3.86458 1.83264 7.00001 1.83264ZM7.00001 3.83329C5.90139 3.83329 5.00001 4.73467 5.00001 5.83329C4.99907 5.89955 5.01131 5.96533 5.03602 6.02681C5.06073 6.0883 5.09741 6.14426 5.14393 6.19144C5.19045 6.23863 5.24589 6.2761 5.30702 6.30167C5.36815 6.32724 5.43375 6.34041 5.50001 6.34041C5.56627 6.34041 5.63187 6.32724 5.693 6.30167C5.75413 6.2761 5.80957 6.23863 5.85609 6.19144C5.90261 6.14426 5.93929 6.0883 5.964 6.02681C5.98871 5.96533 6.00095 5.89955 6.00001 5.83329C6.00001 5.27525 6.44196 4.83329 7.00001 4.83329C7.55805 4.83329 8.00001 5.27525 8.00001 5.83329C8.00001 6.36203 7.78557 6.51766 7.40886 6.86975C7.03216 7.22184 6.50001 7.76883 6.50001 8.66663C6.49907 8.73288 6.51131 8.79866 6.53602 8.86015C6.56073 8.92163 6.59741 8.97759 6.64393 9.02478C6.69045 9.07196 6.74589 9.10943 6.80702 9.135C6.86815 9.16058 6.93375 9.17375 7.00001 9.17375C7.06627 9.17375 7.13187 9.16058 7.193 9.135C7.25413 9.10943 7.30957 9.07196 7.35609 9.02478C7.40261 8.97759 7.43929 8.92163 7.464 8.86015C7.48871 8.79866 7.50095 8.73288 7.50001 8.66663C7.50001 8.11342 7.71786 7.94913 8.09116 7.60022C8.46445 7.25131 9.00001 6.71622 9.00001 5.83329C9.00001 4.73467 8.09863 3.83329 7.00001 3.83329ZM7.00001 9.83329C6.8232 9.83329 6.65363 9.90353 6.52861 10.0286C6.40358 10.1536 6.33334 10.3231 6.33334 10.5C6.33334 10.6768 6.40358 10.8463 6.52861 10.9714C6.65363 11.0964 6.8232 11.1666 7.00001 11.1666C7.17682 11.1666 7.34639 11.0964 7.47141 10.9714C7.59644 10.8463 7.66668 10.6768 7.66668 10.5C7.66668 10.3231 7.59644 10.1536 7.47141 10.0286C7.34639 9.90353 7.17682 9.83329 7.00001 9.83329Z" fill="#6444D3"/>
</svg>
