<svg width="23" height="28" viewBox="0 0 23 28" fill="none" xmlns="http://www.w3.org/2000/svg">
<path d="M11.5 0.666626C7.82992 0.666626 4.83331 3.66324 4.83331 7.33329C4.83331 11.0033 7.82992 14 11.5 14C15.17 14 18.1666 11.0033 18.1666 7.33329C18.1666 3.66324 15.17 0.666626 11.5 0.666626ZM3.83331 16.6666C2.18831 16.6666 0.833313 18.0216 0.833313 19.6666V20.4661C0.833313 22.4267 2.07646 24.1853 3.97264 25.3945C5.86882 26.6037 8.46321 27.3333 11.5 27.3333C14.5368 27.3333 17.1311 26.6037 19.0273 25.3945C20.9235 24.1853 22.1666 22.4267 22.1666 20.4661V19.6666C22.1666 18.0216 20.8116 16.6666 19.1666 16.6666H3.83331Z" fill="#6444D3"/>
</svg>
