<svg width="23" height="28" viewBox="0 0 23 28" fill="none" xmlns="http://www.w3.org/2000/svg">
<path d="M11.5 0.666626C7.82998 0.666626 4.83337 3.66324 4.83337 7.33329C4.83337 11.0033 7.82998 14 11.5 14C15.1701 14 18.1667 11.0033 18.1667 7.33329C18.1667 3.66324 15.1701 0.666626 11.5 0.666626ZM11.5 2.66663C14.0892 2.66663 16.1667 4.74412 16.1667 7.33329C16.1667 9.92247 14.0892 12 11.5 12C8.91086 12 6.83337 9.92247 6.83337 7.33329C6.83337 4.74412 8.91086 2.66663 11.5 2.66663ZM3.83337 16.6666C2.18837 16.6666 0.833374 18.0216 0.833374 19.6666V20.4661C0.833374 22.4267 2.07652 24.1853 3.9727 25.3945C5.86888 26.6037 8.46327 27.3333 11.5 27.3333C14.5368 27.3333 17.1312 26.6037 19.0274 25.3945C20.9236 24.1853 22.1667 22.4267 22.1667 20.4661V19.6666C22.1667 18.0216 20.8117 16.6666 19.1667 16.6666H3.83337ZM3.83337 18.6666H19.1667C19.731 18.6666 20.1667 19.1023 20.1667 19.6666V20.4661C20.1667 21.5762 19.4517 22.7518 17.9519 23.7083C16.452 24.6647 14.2126 25.3333 11.5 25.3333C8.78748 25.3333 6.54804 24.6647 5.04822 23.7083C3.5484 22.7518 2.83337 21.5762 2.83337 20.4661V19.6666C2.83337 19.1023 3.26904 18.6666 3.83337 18.6666Z" fill="#6444D3"/>
</svg>
