<svg width="21" height="16" viewBox="0 0 21 16" fill="none" xmlns="http://www.w3.org/2000/svg">
<path d="M4 0.5C2.21403 0.5 0.75 1.96403 0.75 3.75V12.25C0.75 14.036 2.21403 15.5 4 15.5H12.5C14.286 15.5 15.75 14.036 15.75 12.25V11.5752L19.6143 13.8936C19.7281 13.9618 19.858 13.9986 19.9907 14.0002C20.1235 14.0019 20.2542 13.9682 20.3697 13.9028C20.4852 13.8374 20.5812 13.7425 20.648 13.6278C20.7149 13.5131 20.75 13.3827 20.75 13.25V2.75C20.75 2.64959 20.7299 2.5502 20.6908 2.45772C20.6517 2.36523 20.5945 2.28154 20.5224 2.21159C20.4504 2.14165 20.365 2.08688 20.2714 2.05053C20.1778 2.01419 20.0779 1.997 19.9775 2C19.8493 2.00384 19.7243 2.04049 19.6143 2.10645L15.75 4.4248V3.75C15.75 1.96403 14.286 0.5 12.5 0.5H4ZM4 2H12.5C13.475 2 14.25 2.77497 14.25 3.75V5.72656V10.2412V12.25C14.25 13.225 13.475 14 12.5 14H4C3.02497 14 2.25 13.225 2.25 12.25V3.75C2.25 2.77497 3.02497 2 4 2ZM19.25 4.0752V11.9248L15.75 9.82519V6.1748L19.25 4.0752Z" fill="white"/>
</svg>
