<svg width="16" height="10" viewBox="0 0 16 10" fill="none" xmlns="http://www.w3.org/2000/svg">
<path d="M2.83332 0C1.64268 0 0.666656 0.976021 0.666656 2.16667V7.83333C0.666656 9.02398 1.64268 10 2.83332 10H13.1667C14.3573 10 15.3333 9.02398 15.3333 7.83333V2.16667C15.3333 0.976021 14.3573 0 13.1667 0H2.83332ZM2.83332 1H13.1667C13.8167 1 14.3333 1.51665 14.3333 2.16667V2.66667H1.66666V2.16667C1.66666 1.51665 2.1833 1 2.83332 1ZM1.66666 4H14.3333V7.83333C14.3333 8.48335 13.8167 9 13.1667 9H2.83332C2.1833 9 1.66666 8.48335 1.66666 7.83333V4ZM10.5 6.66667C10.4337 6.66573 10.368 6.67797 10.3065 6.70268C10.245 6.72738 10.189 6.76406 10.1418 6.81059C10.0947 6.85711 10.0572 6.91255 10.0316 6.97367C10.006 7.0348 9.99287 7.1004 9.99287 7.16667C9.99287 7.23293 10.006 7.29853 10.0316 7.35966C10.0572 7.42079 10.0947 7.47622 10.1418 7.52275C10.189 7.56927 10.245 7.60595 10.3065 7.63066C10.368 7.65536 10.4337 7.6676 10.5 7.66667H12.5C12.5662 7.6676 12.632 7.65536 12.6935 7.63066C12.755 7.60595 12.811 7.56927 12.8581 7.52275C12.9053 7.47622 12.9428 7.42079 12.9684 7.35966C12.9939 7.29853 13.0071 7.23293 13.0071 7.16667C13.0071 7.1004 12.9939 7.0348 12.9684 6.97367C12.9428 6.91255 12.9053 6.85711 12.8581 6.81059C12.811 6.76406 12.755 6.72738 12.6935 6.70268C12.632 6.67797 12.5662 6.66573 12.5 6.66667H10.5Z" fill="#6444D3"/>
</svg>
